<?xml version="1.0" encoding="utf-8"?>
<!-- Generator: Adobe Illustrator 24.0.0, SVG Export Plug-In . SVG Version: 6.00 Build 0)  -->
<svg fill="#0156FE" version="1.1" id="Capa_1" xmlns="http://www.w3.org/2000/svg" xmlns:xlink="http://www.w3.org/1999/xlink" x="0px" y="0px"
	 viewBox="0 0 97.8 97.8" style="enable-background:new 0 0 97.8 97.8;" xml:space="preserve">
<g>
	<g>
		<path d="M39.3,38.7c0-4.6-3.1-4.6-3.1-4.6h-1.7H23.3V44h12.1C37.5,44,39.3,43.3,39.3,38.7z"/>
		<path d="M36.2,50.8H23.3v11.8h12.3c1.9-0.1,5.3-0.6,5.3-5.8C40.9,50.8,36.2,50.8,36.2,50.8z"/>
		<path d="M69.2,44c-6.8,0-7.8,6.8-7.8,6.8H76C76,50.8,76.1,44,69.2,44z"/>
		<path d="M48.9,0C21.9,0,0,21.9,0,48.9s21.9,48.9,48.9,48.9s48.9-21.9,48.9-48.9S75.9,0,48.9,0z M59.5,28.8h18.3v5.5H59.5V28.8z
			 M50.3,57.5c0,13.5-14.1,13.1-14.1,13.1H23.3h-0.4h-9.8V26.2h9.8h0.4h12.9c7,0,12.5,3.9,12.5,11.8c0,7.9-6.8,8.4-6.8,8.4
			C50.9,46.5,50.3,57.5,50.3,57.5z M69.3,64.5c7.4,0,7.1-4.8,7.1-4.8h7.8c0,12.7-15.2,11.8-15.2,11.8c-18.2,0-17-17-17-17
			s0-17,17-17c17.9,0,15.4,19.2,15.4,19.2h-23C61.5,65,69.3,64.5,69.3,64.5z"/>
	</g>
</g>
</svg>
