<?xml version="1.0" encoding="utf-8"?>
<!-- Generator: Adobe Illustrator 24.0.0, SVG Export Plug-In . SVG Version: 6.00 Build 0)  -->
<svg fill="#E94E32" version="1.1" id="Capa_1" xmlns="http://www.w3.org/2000/svg" xmlns:xlink="http://www.w3.org/1999/xlink" x="0px" y="0px"
	 viewBox="0 0 97.8 97.8" style="enable-background:new 0 0 97.8 97.8;" xml:space="preserve">
<path class="st0" d="M48.9,1.2C21.9,1.2,0,23.1,0,50.1C0,71.7,14,90,33.4,96.5c2.4,0.4,3.3-1.1,3.3-2.4c0-1.2,0-4.2-0.1-8.3
	c-13.6,3-16.5-6.6-16.5-6.6c-2.2-5.6-5.4-7.2-5.4-7.2c-4.4-3,0.3-3,0.3-3c4.9,0.3,7.5,5,7.5,5c4.4,7.5,11.4,5.3,14.2,4.1
	c0.4-3.2,1.7-5.3,3.1-6.5c-10.9-1.2-22.3-5.4-22.3-24.2c0-5.3,1.9-9.7,5-13.1c-0.5-1.2-2.2-6.2,0.5-12.9c0,0,4.1-1.3,13.4,5
	c3.9-1.1,8.1-1.6,12.2-1.6c4.2,0,8.3,0.6,12.2,1.6c9.3-6.3,13.4-5,13.4-5c2.7,6.7,1,11.7,0.5,12.9c3.1,3.4,5,7.8,5,13.1
	c0,18.8-11.4,22.9-22.3,24.1c1.8,1.5,3.3,4.5,3.3,9.1c0,6.5-0.1,11.8-0.1,13.4c0,1.3,0.9,2.8,3.4,2.4C83.8,90,97.8,71.7,97.8,50.1
	C97.8,23.1,75.9,1.2,48.9,1.2z"/>
</svg>
