<?xml version="1.0" encoding="utf-8"?>
<!-- Generator: Adobe Illustrator 24.0.0, SVG Export Plug-In . SVG Version: 6.00 Build 0)  -->
<svg fill="#C13584" version="1.1" xmlns="http://www.w3.org/2000/svg" xmlns:xlink="http://www.w3.org/1999/xlink" x="0px" y="0px"
	 viewBox="0 0 512 512" style="enable-background:new 0 0 512 512;" xml:space="preserve">
<style type="text/css">
	.st0{fill:#FFFFFF;}
</style>
<g id="Layer_2">
	<circle cx="256" cy="256" r="249.4"/>
</g>
<g id="Logo">
	<g>
		<path class="st0" d="M256,127.3c41.9,0,46.9,0.2,63.4,0.9c15.3,0.7,23.6,3.3,29.1,5.4c7.3,2.8,12.6,6.2,18,11.7
			c5.5,5.5,8.9,10.7,11.7,18c2.1,5.5,4.7,13.8,5.4,29.1c0.8,16.5,0.9,21.5,0.9,63.4s-0.2,46.9-0.9,63.4c-0.7,15.3-3.3,23.6-5.4,29.1
			c-2.8,7.3-6.2,12.6-11.7,18c-5.5,5.5-10.7,8.9-18,11.7c-5.5,2.1-13.8,4.7-29.1,5.4c-16.5,0.8-21.5,0.9-63.4,0.9
			s-46.9-0.2-63.4-0.9c-15.3-0.7-23.6-3.3-29.1-5.4c-7.3-2.8-12.6-6.2-18-11.7c-5.5-5.5-8.9-10.7-11.7-18
			c-2.1-5.5-4.7-13.8-5.4-29.1c-0.8-16.5-0.9-21.5-0.9-63.4s0.2-46.9,0.9-63.4c0.7-15.3,3.3-23.6,5.4-29.1c2.8-7.3,6.2-12.6,11.7-18
			c5.5-5.5,10.7-8.9,18-11.7c5.5-2.1,13.8-4.7,29.1-5.4C209.1,127.5,214.1,127.3,256,127.3 M256,99.1c-42.6,0-48,0.2-64.7,0.9
			c-16.7,0.8-28.1,3.4-38.1,7.3c-10.3,4-19.1,9.4-27.8,18.1c-8.7,8.7-14.1,17.5-18.1,27.8c-3.9,10-6.5,21.4-7.3,38.1
			c-0.8,16.7-0.9,22.1-0.9,64.7c0,42.6,0.2,48,0.9,64.7c0.8,16.7,3.4,28.1,7.3,38.1c4,10.3,9.4,19.1,18.1,27.8
			c8.7,8.7,17.5,14.1,27.8,18.1c10,3.9,21.4,6.5,38.1,7.3c16.7,0.8,22.1,0.9,64.7,0.9s48-0.2,64.7-0.9c16.7-0.8,28.1-3.4,38.1-7.3
			c10.3-4,19.1-9.4,27.8-18.1c8.7-8.7,14.1-17.5,18.1-27.8c3.9-10,6.5-21.4,7.3-38.1c0.8-16.7,0.9-22.1,0.9-64.7s-0.2-48-0.9-64.7
			c-0.8-16.7-3.4-28.1-7.3-38.1c-4-10.3-9.4-19.1-18.1-27.8c-8.7-8.7-17.5-14.1-27.8-18.1c-10-3.9-21.4-6.5-38.1-7.3
			C304,99.2,298.6,99.1,256,99.1L256,99.1z"/>
		<path class="st0" d="M256,175.4c-44.5,0-80.6,36.1-80.6,80.6c0,44.5,36.1,80.6,80.6,80.6s80.6-36.1,80.6-80.6
			C336.6,211.5,300.5,175.4,256,175.4z M256,308.3c-28.9,0-52.3-23.4-52.3-52.3c0-28.9,23.4-52.3,52.3-52.3
			c28.9,0,52.3,23.4,52.3,52.3C308.3,284.9,284.9,308.3,256,308.3z"/>
		<circle class="st0" cx="339.8" cy="172.2" r="18.8"/>
	</g>
</g>
</svg>
