<?xml version="1.0" encoding="utf-8"?>
<!-- Generator: Adobe Illustrator 24.0.0, SVG Export Plug-In . SVG Version: 6.00 Build 0)  -->
<svg fill="#D44638" version="1.1" xmlns="http://www.w3.org/2000/svg" xmlns:xlink="http://www.w3.org/1999/xlink" x="0px" y="0px"
	 viewBox="0 0 978.1 978.1" style="enable-background:new 0 0 978.1 978.1;" xml:space="preserve">
<style type="text/css">
	.st0{fill:#FFFFFF;}
</style>
<g id="Layer_2">
	<circle cx="489.1" cy="489.1" r="489.1"/>
</g>
<g id="Layer_1">
	<g>
		<path class="st0" d="M746.1,377.2c-2.8,2-4.6,3.3-6.3,4.6C662,438.9,584.3,496,506.6,553.1c-11.3,8.3-26,8-36.9-0.6
			c-3.3-2.6-6.6-5.1-9.9-7.6c-67.1-49.4-134.1-98.8-201.2-148.2c-8.9-6.6-17.9-13.1-27.6-20.3c0,2.2,0,3.4,0,4.7
			c0.3,79.8,0.7,159.7,1.1,239.5c0,1.6,0.2,3.4,1,4.7c2.7,4.6,5.2,9.5,8.7,13.3c9.3,9.9,19.9,17.3,34.5,17.1
			c29.5-0.3,59-0.3,88.5-0.4c112.5-0.2,225-0.6,337.4-0.4c11,0,20-3,27.7-9.9c10.3-9.2,17.3-20.2,17.2-34.9
			c-0.5-75.8-0.7-151.7-1.1-227.5C746.1,381.2,746.1,379.8,746.1,377.2z M260.3,325.5c-0.4,0.8-0.9,1.5-1.3,2.3
			c2.2,1.6,4.5,3.3,6.7,4.9c10.1,7.6,20.2,15.2,30.4,22.7c62.4,45.9,124.8,91.7,187,137.8c4.3,3.2,7,3,11.1,0
			c47.9-35.3,96-70.2,143.8-105.6c24.2-17.9,48-36.4,72-54.8c2.4-1.8,4.3-4.3,7.5-7.7c-4.4-0.5-7.1-1-9.8-1
			c-15.7-0.3-31.3-0.8-47-0.8c-107.6-0.1-215.3-0.2-322.9-0.2c-22.3,0-44.6,0.6-67,1.1C267.4,324.4,263.9,325.1,260.3,325.5z"/>
	</g>
</g>
</svg>
