<svg xmlns="http://www.w3.org/2000/svg" viewBox="0 0 436 502"><defs><style>.cls-1{fill:none;}.cls-2{fill:#c1f6e5;}.cls-3{fill:#64e9bd;}.cls-4{fill:#337195;}.cls-5{fill:#004e7a;}.cls-6{fill:#e0fbf2;}.cls-7{fill:#99b8ca;}</style></defs><title>ml_logo_light</title><g id="Layer_2" data-name="Layer 2"><polygon class="cls-1" points="0 0 0 376 218 502 218 125 0 0"/><polygon class="cls-2" points="218 125 218 502 436 376 436 0 218 125"/><polyline class="cls-1" points="436 376 436 0 218 125"/><polygon class="cls-3" points="218 251 218 125 436 0 436 376 327 439 327 188 218 251"/><polygon class="cls-4" points="218 125 218 502 0 376 0 0 218 125"/><polygon class="cls-5" points="218 251 218 125 0 0 0 376 109 439 109 188 218 251"/></g><g id="Layer_5" data-name="Layer 5"><polygon class="cls-6" points="218.18 300.8 327.38 239.76 327.38 438.92 218.38 501.92 218.18 300.8"/><polygon class="cls-7" points="218.38 300.8 109.18 239.76 109.38 438.92 218.38 501.92 218.38 300.8"/></g></svg>