<svg xmlns="http://www.w3.org/2000/svg" viewBox="0 0 436.2 502.11"><defs><style>.cls-1{fill:none;}.cls-2{fill:#fee4df;}.cls-3{fill:#6689ac;}.cls-4{fill:#ffb8bb;}.cls-5{fill:#003b75;}.cls-6{fill:#fff1f1;}.cls-7{fill:#99b1c8;}</style></defs><title>ml_logo_dark</title><g id="Layer_2" data-name="Layer 2"><polygon class="cls-1" points="0 0 0 376 218 502 218 125 0 0"/><polygon class="cls-2" points="218 125 218 502 436 376 436 0 218 125"/><polyline class="cls-1" points="436 376 436 0 218 125"/><polygon class="cls-3" points="218 125 218 502 0 376 0 0 218 125"/><polygon class="cls-4" points="218.2 251 218.2 125 436.2 0 436.2 376 327.2 439 327.2 188 218.2 251"/><polygon class="cls-5" points="218 251 218 125 0 0 0 376 109 439 109 188 218 251"/><polygon class="cls-4" points="218.2 251 218.2 125 436.2 0 436.2 376 327.2 439 327.2 188 218.2 251"/></g><g id="Layer_5" data-name="Layer 5"><polygon class="cls-6" points="218 300.99 327.2 239.95 327.2 439.11 218.2 502.11 218 300.99"/><polygon class="cls-7" points="218.2 300.99 109 239.95 109.2 439.11 218.2 502.11 218.2 300.99"/></g></svg>