<svg xmlns="http://www.w3.org/2000/svg" viewBox="0 0 512 512">
	<path d="M503.686 326.871a22.056 22.056 0 0 0-27.18-.29c-35.597 27.194-78.143 41.567-123.041 41.567-12.218 0-24.465-1.1-36.401-3.268-4.761-.868-9.317 2.291-10.181 7.051a8.756 8.756 0 0 0 7.051 10.181 221.695 221.695 0 0 0 39.53 3.55c48.774 0 94.997-15.617 133.671-45.162a4.564 4.564 0 0 1 5.624.059 4.561 4.561 0 0 1 1.303 5.469c-19.069 41.693-49.47 77.047-87.915 102.238-39.456 25.851-85.352 39.517-132.724 39.517-133.718 0-242.506-108.788-242.506-242.506 0-47.375 13.665-93.27 39.517-132.723 25.191-38.447 60.544-68.847 102.242-87.917a4.55 4.55 0 0 1 5.462 1.305 4.56 4.56 0 0 1 .061 5.621c-29.546 38.68-45.163 84.903-45.163 133.673 0 47.23 14.783 92.296 42.752 130.328 27.397 37.254 64.95 64.578 108.6 79.017a8.76 8.76 0 0 0 11.065-5.564c1.518-4.592-.973-9.547-5.564-11.065-83.343-27.567-139.338-105.013-139.338-192.715 0-44.895 14.374-87.442 41.567-123.042a22.048 22.048 0 0 0-.292-27.179 22.043 22.043 0 0 0-26.439-6.304c-44.699 20.442-82.6 53.032-109.603 94.242-27.727 42.313-42.382 91.528-42.382 142.323 0 143.376 116.646 260.021 260.021 260.021 50.792 0 100.007-14.655 142.324-42.382 41.209-27.003 73.8-64.903 94.245-109.603a22.053 22.053 0 0 0-6.306-26.442z"/>
	<path d="M251.454 164.085c20.691 0 37.526 16.834 37.526 37.525a8.757 8.757 0 0 0 17.514 0c0-20.691 16.834-37.525 37.525-37.525a8.757 8.757 0 0 0 0-17.514c-20.691 0-37.525-16.835-37.525-37.526a8.757 8.757 0 0 0-17.514 0c0 20.691-16.835 37.526-37.526 37.526a8.757 8.757 0 0 0 0 17.514zm46.283-25.281a55.472 55.472 0 0 0 16.523 16.524 55.469 55.469 0 0 0-16.523 16.523 55.472 55.472 0 0 0-16.524-16.523 55.464 55.464 0 0 0 16.524-16.524zM375.404 276.696c15.022 0 27.244-12.221 27.244-27.242 0-15.022-12.222-27.244-27.244-27.244s-27.243 12.222-27.243 27.244c.002 15.021 12.222 27.242 27.243 27.242zm0-36.97c5.364 0 9.729 4.364 9.729 9.729 0 5.363-4.364 9.727-9.729 9.727s-9.728-4.363-9.728-9.727c.001-5.365 4.364-9.729 9.728-9.729zM40.451 436.768c-15.022 0-27.243 12.221-27.243 27.243 0 15.022 12.221 27.244 27.243 27.244 15.022 0 27.243-12.222 27.243-27.244s-12.221-27.243-27.243-27.243zm0 36.971c-5.364 0-9.728-4.364-9.728-9.729 0-5.365 4.364-9.727 9.728-9.727s9.728 4.363 9.728 9.728c0 5.364-4.363 9.728-9.728 9.728z"/>
	<circle cx="297.736" cy="260.44" r="10.979"/>
	<circle cx="10.979" cy="392.27" r="10.979"/>
	<circle cx="368.144" cy="90.735" r="10.979"/>
</svg>
