<svg xmlns="http://www.w3.org/2000/svg" viewBox="0 0 399.079 399.079">
	<path fill="#ffffff" d="M371.84 100.04a7.242 7.242 0 0 0-9.9-2.62l-35.36 20.44a7.242 7.242 0 0 0 7.28 12.52l35.36-20.44a7.242 7.242 0 0 0 2.62-9.9zM369.22 289.18l-35.36-20.44a7.242 7.242 0 0 0-7.28 12.52l35.36 20.44a7.242 7.242 0 0 0 7.28-12.52zM200.099 342.62a7.28 7.28 0 0 0-7.799 7.799v40.84c-.298 4.01 2.711 7.501 6.721 7.799a7.28 7.28 0 0 0 7.799-7.799v-40.84a7.281 7.281 0 0 0-6.721-7.799zM72.5 117.86L37.14 97.42a7.242 7.242 0 0 0-7.28 12.52l35.36 20.44a7.242 7.242 0 0 0 7.28-12.52zM200.099.02a7.28 7.28 0 0 0-7.799 7.799v40.84a7.28 7.28 0 0 0 7.24 7.24 7.28 7.28 0 0 0 7.28-7.28V7.82a7.282 7.282 0 0 0-6.721-7.8zM130.34 65.22l-20.4-35.36a7.242 7.242 0 0 0-12.52 7.28l20.4 35.36a7.242 7.242 0 0 0 12.52-7.28zM200.618 134.94a7.183 7.183 0 0 0-1.078 0c-35.678 0-64.6 28.922-64.6 64.6a7.28 7.28 0 0 0 7.28 7.28 7.28 7.28 0 0 0 7.24-7.28c-.022-27.636 22.364-50.058 50-50.08h.08c4.01.298 7.501-2.711 7.799-6.721s-2.711-7.502-6.721-7.799zM397.98 198.98a7.28 7.28 0 0 0-6.721-6.721h-40.84c-4.01-.298-7.501 2.711-7.799 6.721a7.28 7.28 0 0 0 7.8 7.799h40.84a7.279 7.279 0 0 0 6.72-7.799zM49.738 192.3a7.183 7.183 0 0 0-1.078 0H7.82a7.28 7.28 0 0 0 0 14.52h40.84a7.28 7.28 0 0 0 7.799-6.721 7.279 7.279 0 0 0-6.721-7.799z"/>
	<path fill="#ffffff" d="M199.569 92.7c-59.006-.008-106.846 47.819-106.855 106.825a106.843 106.843 0 0 0 31.305 75.575 106.478 106.478 0 0 0 75.52 31.28c59.006.008 106.847-47.819 106.855-106.825S258.575 92.708 199.569 92.7zm65.25 172.24c-36.053 36.053-94.507 36.053-130.56 0a92.32 92.32 0 0 1-27.04-65.4 92.001 92.001 0 0 1 27.04-65.28v.12c36.053-36.053 94.507-36.053 130.56 0 36.054 36.053 36.054 94.507 0 130.56zM301.678 361.972l-.019-.032-20.44-35.36a7.242 7.242 0 0 0-12.52 7.28l20.44 35.36a7.24 7.24 0 0 0 9.88 2.64 7.24 7.24 0 0 0 2.659-9.888zM299.28 27.24a7.242 7.242 0 0 0-9.9 2.62l-20.44 35.36a7.24 7.24 0 0 0 2.58 9.908l.02.012a7.24 7.24 0 0 0 9.901-2.608l.019-.032 20.44-35.36a7.242 7.242 0 0 0-2.62-9.9zM127.76 323.96a7.242 7.242 0 0 0-9.9 2.62l-20.44 35.36a7.242 7.242 0 0 0 12.52 7.28l20.44-35.36a7.242 7.242 0 0 0-2.62-9.9zM75.12 271.32a7.242 7.242 0 0 0-9.9-2.62l-35.36 20.44a7.242 7.242 0 0 0 7.28 12.52l35.36-20.44a7.242 7.242 0 0 0 2.62-9.9z"/>
</svg>
