<svg version="1" xmlns="http://www.w3.org/2000/svg" width="821.333" height="821.333" viewBox="0 0 616.000000 616.000000"><path d="M41 231v230.9l8.7 5.2c4.9 2.9 9.1 5.7 9.4 6.2.3.5.8.7 1 .6.2-.2 1.5.4 2.9 1.3s22.3 13.4 46.5 27.9c24.2 14.5 44.2 26.7 44.3 27.1.2.4 1.2.8 2.2.8 1 0 2 .3 2.2.8.3.8 14.3 9.2 15.3 9.2.4 0 .5-.7.1-1.5-.3-.8-.2-1.5.2-1.5.9.1 9.9 5 21.7 12 12.2 7.1 12.7 7.4 31.9 18.5 9.3 5.3 18.2 10.5 19.7 11.4 1.5.9 5.8 3.4 9.6 5.6 3.7 2.2 7.7 4.5 8.8 5.2 1.1.6 3.6 2 5.5 2.9 1.9 1 5.1 2.9 7 4.2 1.9 1.3 4.4 2.8 5.5 3.3 1.1.5 2.7 1.3 3.5 1.9 8.1 5.4 22.5 12.7 24.1 12.3 1-.3 1.9-.8 1.9-1.2 0-.4 2.6-2 5.8-3.6 3.1-1.6 5.9-3.1 6.2-3.5.3-.3 2.5-1.7 5-3.1 6.4-3.6 7.4-4.1 18.8-10.9 5.6-3.3 10.5-6 10.7-6 .2 0 3.7-2 7.7-4.4 11-6.7 48.7-28.6 53.5-31.1 2.3-1.2 4.8-2.6 5.5-3.2.7-.5 3.3-2.1 5.8-3.4 2.5-1.3 5.6-3.2 6.9-4.2 1.7-1.2 2.7-1.4 3.1-.6.7 1 4.6-.9 25.5-12.6 11.7-6.6 21.3-11.9 26.5-14.8 3-1.7 9.7-5.4 14.8-8.3 5-3 11.1-6.3 13.5-7.5 2.3-1.2 4.5-2.7 4.9-3.3.5-.6.8-.7.8-.1 0 .7.3.7.8 0 .4-.6 2.3-1.8 4.2-2.9 1.9-1 6-3.2 9-4.9 12-6.7 17.8-9.9 25.2-14l7.8-4.2V233.9C575 9.3 574.9.3 573.2.5c-1 0-5.6 2.3-10.3 5-4.6 2.7-9.3 5.4-10.4 6-10.1 5.6-33.3 19.3-34.3 20.2-.7.7-1.7 1.3-2.1 1.3-.5 0-8.2 4.3-17.2 9.6s-18.2 10.6-20.4 11.9c-10 5.6-11.6 6.5-15.2 8.8-2.1 1.3-4.5 2.7-5.3 3-.8.4-3.3 1.8-5.5 3.1-23.6 13.7-53.7 31.2-56.9 33-2.3 1.3-7.6 4.4-11.9 7-4.3 2.5-8.1 4.6-8.4 4.6-.3 0-1.7.8-3.1 1.9-1.5 1-4.4 2.8-6.4 4-2.1 1.1-5.5 3.1-7.5 4.2-3.2 1.8-13.4 7.8-19.5 11.4-.9.5-4.1 2.3-7 3.9-2.9 1.5-8.6 4.9-12.8 7.5-4.1 2.6-8.3 5-9.3 5.4-1.5.6-6.4-1.6-16.2-7.4-1.6-1-5.2-3.1-8-4.7-2.7-1.6-10.6-6.1-17.4-10-6.9-4-12.8-7.2-13.3-7.2-.4 0-.8-.4-.8-.9s-.8-1.1-1.7-1.4c-1-.4-3.6-1.7-5.8-3-2.2-1.3-8-4.7-13-7.5-4.9-2.8-9.5-5.6-10.2-6.2-.7-.5-1.5-1-1.7-1-.5 0-19.4-10.9-22.6-13-.8-.6-2.2-1.3-3-1.7-.8-.4-14.1-8-29.4-17-15.4-9-28.3-16.3-28.8-16.3-.4 0-.8-.5-.8-1 0-.6-.5-1-1.1-1-.6 0-3.7-1.5-6.8-3.4-3.1-1.9-7.4-4.4-9.6-5.7-2.2-1.2-8-4.5-12.8-7.3-4.9-2.8-10-5.7-11.5-6.5-1.5-.8-2.9-1.7-3.2-2-.3-.4-1.6-1.2-3-1.9-1.4-.6-3.2-1.6-4-2.2-6.2-4.1-38.8-22.4-41.1-23L41 .1V231z"/></svg>
