<?xml version="1.0" standalone="no"?>
<!DOCTYPE svg PUBLIC "-//W3C//DTD SVG 20010904//EN"
 "http://www.w3.org/TR/2001/REC-SVG-20010904/DTD/svg10.dtd">
<svg version="1.0" xmlns="http://www.w3.org/2000/svg"
 width="1004.000000pt" height="1004.000000pt" viewBox="0 0 1004.000000 1004.000000"
 preserveAspectRatio="xMidYMid meet">
<metadata>
Created by potrace 1.11, written by Peter Selinger 2001-2013
</metadata>
<g transform="translate(0.000000,1004.000000) scale(0.100000,-0.100000)"
fill="#000000" stroke="none">
<path d="M660 6277 c0 -3576 1 -3765 18 -3771 9 -3 33 -15 52 -27 90 -55 290
-169 296 -169 3 0 20 -11 36 -25 16 -14 33 -23 37 -20 5 2 17 -3 28 -13 18
-16 35 -26 116 -69 17 -10 34 -21 35 -25 2 -5 8 -8 13 -8 5 0 116 -62 247
-138 284 -166 422 -245 505 -291 34 -19 68 -41 75 -48 7 -7 17 -13 22 -13 5 0
44 -21 87 -46 43 -25 85 -49 93 -54 8 -5 54 -32 101 -59 48 -28 91 -51 97 -51
6 0 12 -4 14 -8 2 -5 80 -52 173 -105 94 -53 175 -101 182 -107 7 -5 15 -10
18 -10 10 0 310 -175 313 -182 2 -5 8 -8 13 -8 4 0 43 -20 85 -45 41 -25 77
-45 79 -45 3 0 48 -26 102 -58 88 -53 315 -185 401 -234 37 -21 72 -41 162
-93 36 -21 83 -48 105 -59 22 -12 42 -23 45 -27 10 -11 169 -99 180 -99 5 0
10 -3 10 -8 0 -4 21 -18 47 -32 46 -24 212 -120 243 -140 8 -6 22 -13 30 -17
16 -7 167 -95 210 -122 14 -8 40 -24 58 -33 36 -20 34 -21 167 58 33 19 68 38
78 41 9 3 17 9 17 14 0 5 7 9 15 9 8 0 15 5 15 11 0 5 4 8 9 4 5 -3 16 2 24
10 9 8 20 15 25 15 5 0 15 7 22 15 7 8 16 13 20 10 4 -3 13 1 19 9 6 7 29 21
51 31 22 10 40 22 40 27 0 4 6 8 13 8 6 1 37 16 67 35 30 19 71 42 90 51 19
10 37 20 40 23 3 4 19 13 35 21 17 8 32 17 35 20 3 3 22 14 43 25 20 11 37 23
37 27 0 5 3 7 8 6 7 -3 154 79 204 113 15 11 29 19 32 19 5 0 146 80 176 100
8 6 24 14 35 20 11 5 43 23 70 40 28 17 58 33 68 37 9 3 17 9 17 13 0 4 11 11
25 14 14 4 25 11 25 16 0 6 9 10 20 10 11 0 20 4 20 10 0 5 11 12 25 16 14 3
25 10 25 14 0 4 8 10 18 14 9 3 35 16 57 29 138 81 385 223 410 236 17 9 32
19 33 23 2 5 8 8 13 8 5 0 32 15 61 33 87 53 112 67 131 73 9 4 17 10 17 15 0
5 4 9 10 9 8 0 138 72 180 100 8 6 26 16 40 22 14 7 27 15 30 18 5 5 40 25
100 57 19 10 37 20 40 23 5 5 24 16 99 57 25 14 51 29 56 33 6 4 26 17 45 27
33 19 323 186 393 227 18 10 53 30 78 45 148 83 184 105 187 113 2 4 12 8 23
8 10 0 19 3 19 8 0 4 18 16 40 26 22 11 40 23 40 28 0 5 5 6 10 3 6 -3 10 -1
10 6 0 7 3 10 6 6 4 -3 25 6 48 21 22 15 55 34 71 42 17 8 36 21 43 28 7 6 20
12 28 12 8 0 14 5 14 10 0 6 4 10 9 10 7 0 143 77 276 157 22 13 52 28 68 34
15 6 27 15 27 19 0 4 11 11 25 14 l25 6 0 3765 0 3765 -25 -12 c-14 -6 -25
-15 -25 -20 0 -4 -9 -8 -19 -8 -11 0 -23 -4 -26 -10 -3 -5 -23 -17 -43 -27
-20 -9 -43 -23 -50 -30 -7 -7 -20 -13 -28 -13 -8 0 -14 -4 -14 -10 0 -5 -4
-10 -9 -10 -9 0 -40 -17 -258 -143 -73 -43 -137 -77 -143 -77 -5 0 -10 -4 -10
-10 0 -5 -4 -10 -9 -10 -5 0 -90 -47 -188 -103 -98 -57 -198 -115 -223 -129
-103 -57 -128 -72 -180 -103 -30 -18 -75 -44 -100 -57 -25 -14 -90 -51 -145
-83 -101 -58 -205 -119 -267 -153 -33 -19 -339 -195 -368 -212 -53 -32 -222
-127 -255 -144 -22 -12 -41 -24 -43 -28 -2 -5 -7 -8 -12 -8 -4 0 -69 -36 -145
-80 -76 -44 -140 -80 -142 -80 -3 0 -17 -8 -31 -19 -15 -10 -54 -33 -87 -51
-33 -18 -73 -41 -90 -51 -33 -20 -127 -73 -190 -109 -22 -12 -65 -37 -96 -56
-31 -19 -62 -34 -68 -34 -6 0 -11 -4 -11 -9 0 -5 -8 -11 -17 -14 -19 -6 -90
-46 -184 -103 -31 -19 -62 -34 -68 -34 -6 0 -11 -4 -11 -10 0 -5 -5 -10 -10
-10 -6 0 -27 -10 -48 -23 -34 -22 -99 -59 -182 -103 -19 -11 -37 -21 -40 -24
-3 -3 -16 -11 -29 -18 -13 -8 -40 -23 -60 -34 -20 -12 -56 -32 -81 -46 -25
-13 -49 -28 -55 -32 -5 -4 -26 -17 -45 -27 -19 -11 -66 -37 -105 -58 -38 -21
-72 -41 -75 -45 -3 -3 -16 -10 -30 -16 -21 -9 -31 -7 -62 12 -21 13 -40 24
-43 24 -3 0 -22 11 -43 23 -29 19 -515 299 -687 397 -16 9 -79 45 -140 80 -60
34 -126 71 -145 82 -19 11 -60 35 -90 53 -30 18 -75 44 -100 57 -25 14 -61 35
-80 47 -19 11 -42 24 -50 28 -8 4 -48 26 -88 50 -40 24 -77 43 -82 43 -6 0
-10 5 -10 10 0 6 -4 10 -9 10 -5 0 -95 50 -201 110 -106 61 -196 110 -200 110
-5 0 -10 3 -12 8 -3 8 -46 33 -100 59 -21 10 -38 21 -38 25 0 5 -4 8 -10 8 -5
0 -31 13 -58 29 -26 15 -70 41 -98 56 -107 60 -209 119 -214 124 -3 4 -23 15
-45 26 -22 11 -67 37 -100 58 -33 20 -67 40 -75 44 -12 5 -188 105 -262 148
-9 6 -41 23 -70 39 -29 16 -77 44 -106 62 -29 19 -54 34 -56 34 -2 0 -42 23
-90 50 -48 28 -90 50 -93 50 -4 0 -14 6 -22 14 -9 7 -41 26 -71 42 -30 16 -57
31 -60 34 -6 6 -26 17 -106 61 -31 16 -67 37 -81 46 -35 23 -82 50 -123 71
-19 9 -37 19 -40 22 -3 3 -14 10 -26 16 -11 7 -68 39 -126 73 -59 33 -111 61
-117 61 -6 0 -11 5 -11 10 0 6 -6 10 -14 10 -8 0 -16 3 -18 8 -1 4 -27 20 -55
35 l-53 28 0 -3764z"/>
</g>
</svg>
